# xmcd CD database file
#
# Track frame offsets:
#	150
#	3750
#	21137
#	42890
#	61307
#	80620
#	102612
#	124575
#	144687
#	161605
#	181612
#	204050
#	215800
#
# Disc length: 3289 seconds
#
# Revision: 2
# Processed by: cddbd v1.5.1PL2 Copyright (c) Steve Scherf et al.
# Submitted via: CDex 1.51
#
DISCID=a80cd70d
DTITLE=佐藤博 - FUTURE FILE
DYEAR=1987
DGENRE=JPop
TTITLE0=Future File
TTITLE1=Find Your Life
TTITLE2=Together
TTITLE3=Step in Love's World
TTITLE4=Fantasy
TTITLE5=Hello Love Again
TTITLE6=Lady Of The Nile
TTITLE7=Forever yours, Sweet Mariann
TTITLE8=Fly To You
TTITLE9=Funky Multi
TTITLE10=Forever
TTITLE11=Future File
TTITLE12=Sweet Inspiration - Extended Power Club Mix -
EXTD=YEAR: 1987
EXTT0=
EXTT1=
EXTT2=
EXTT3=
EXTT4=
EXTT5=
EXTT6=
EXTT7=
EXTT8=
EXTT9=
EXTT10=
EXTT11=
EXTT12=
PLAYORDER=
